# xmcd
#
# Track frame offsets: 
#        150
#        11125
#        25786
#        38720
#        52037
#        64918
#        75724
#        87324
#        101579
#        117071
#        130851
#        143489
#        156724
#        172234
#
# Disc length: 2460 seconds
#
# Revision: 0
# Processed by: cddbd v1.5.2PL0 Copyright (c) Steve Scherf et al.
# Submitted via: ExactAudioCopy v1.2
#
DISCID=bd099a0e
DTITLE=Houston Stackhouse And Friends - George Mitchell Collection
DYEAR=1967
DGENRE=Blues
TTITLE0=Big Road Blues
TTITLE1=Cool Water Blues
TTITLE2=Big Fat Mama Blues
TTITLE3=Take A Little Walk With Me
TTITLE4=Bye Bye Blue
TTITLE5=Mean Old World
TTITLE6=The Wrong Man
TTITLE7=Kansas City Blues
TTITLE8=Right Around The Corner
TTITLE9=Canned Heat
TTITLE10=Nighthawk Boogie
TTITLE11=Down By The Woodside
TTITLE12=Travelin' Man Blues
TTITLE13=Fare You Well Blues
EXTD=
EXTT0=
EXTT1=
EXTT2=
EXTT3=
EXTT4=
EXTT5=
EXTT6=
EXTT7=
EXTT8=
EXTT9=
EXTT10=
EXTT11=
EXTT12=
EXTT13=
PLAYORDER=
